<svg width="261px" height="188px" viewBox="0.00 0.00 261.30 188.00" xmlns="http://www.w3.org/2000/svg">
<g id="graph0" class="graph" transform="scale(1.0 1.0) rotate(0.0) translate(4.0 184.0)">
<polygon fill="white" stroke="transparent" points="-4,4 -4,-184 257.3,-184 257.3,4 -4,4"/>
<!-- home -->
<g id="node1" class="node">
<title>home</title>
<ellipse fill="none" stroke="black" cx="50.73" cy="-90" rx="32.48" ry="18"/>
<text text-anchor="middle" x="50.73" y="-85.8" font-family="Times,serif" font-size="14.00">home</text>
</g>
<!-- pokemons -->
<g id="node2" class="node">
<title>pokemons</title>
<ellipse fill="none" stroke="black" cx="50.73" cy="-18" rx="50.97" ry="18"/>
<text text-anchor="middle" x="50.73" y="-13.8" font-family="Times,serif" font-size="14.00">pokemons</text>
</g>
<!-- home&#45;&gt;pokemons -->
<g id="edge1" class="edge">
<title>home&#45;&gt;pokemons</title>
<path fill="none" stroke="black" d="M50.73,-71.7C50.73,-63.98 50.73,-54.71 50.73,-46.11"/>
<polygon fill="black" stroke="black" points="54.23,-46.1 50.73,-36.1 47.23,-46.1 54.23,-46.1"/>
</g>
<!-- root -->
<g id="node3" class="node">
<title>root</title>
<ellipse fill="none" stroke="black" cx="134.73" cy="-162" rx="27" ry="18"/>
<text text-anchor="middle" x="134.73" y="-157.8" font-family="Times,serif" font-size="14.00">root</text>
</g>
<!-- root&#45;&gt;home -->
<g id="edge4" class="edge">
<title>root&#45;&gt;home</title>
<path fill="none" stroke="black" d="M118.54,-147.5C106.42,-137.41 89.63,-123.41 75.79,-111.88"/>
<polygon fill="black" stroke="black" points="77.96,-109.13 68.04,-105.42 73.48,-114.51 77.96,-109.13"/>
</g>
<!-- flow1 -->
<g id="node4" class="node">
<title>flow1</title>
<ellipse fill="none" stroke="black" cx="134.73" cy="-90" rx="33.63" ry="18"/>
<text text-anchor="middle" x="134.73" y="-85.8" font-family="Times,serif" font-size="14.00">flow1</text>
</g>
<!-- root&#45;&gt;flow1 -->
<g id="edge2" class="edge">
<title>root&#45;&gt;flow1</title>
<path fill="none" stroke="black" d="M134.73,-143.7C134.73,-135.98 134.73,-126.71 134.73,-118.11"/>
<polygon fill="black" stroke="black" points="138.23,-118.1 134.73,-108.1 131.23,-118.1 138.23,-118.1"/>
</g>
<!-- flow2 -->
<g id="node5" class="node">
<title>flow2</title>
<ellipse fill="none" stroke="black" cx="219.73" cy="-90" rx="33.63" ry="18"/>
<text text-anchor="middle" x="219.73" y="-85.8" font-family="Times,serif" font-size="14.00">flow2</text>
</g>
<!-- root&#45;&gt;flow2 -->
<g id="edge3" class="edge">
<title>root&#45;&gt;flow2</title>
<path fill="none" stroke="black" d="M151.12,-147.5C163.38,-137.41 180.37,-123.41 194.38,-111.88"/>
<polygon fill="black" stroke="black" points="196.73,-114.48 202.22,-105.42 192.28,-109.07 196.73,-114.48"/>
</g>
</g>
</svg>
